<?xml version="1.0" encoding="UTF-8"?>
<svg width="1024px" height="1024px" viewBox="0 0 1024 1024" version="1.1" xmlns="http://www.w3.org/2000/svg" xmlns:xlink="http://www.w3.org/1999/xlink">
    <!-- Generator: Sketch 43.2 (39069) - http://www.bohemiancoding.com/sketch -->
    <title>appicon.svg</title>
    <desc>Created with Sketch.</desc>
    <defs></defs>
    <g id="Template---App-Icons" stroke="none" stroke-width="1" fill="none" fill-rule="evenodd">
        <g id="Labels-+-Background" transform="translate(-600.000000, -610.000000)">
            <rect id="BG" fill="#666666" x="0" y="0" width="3250" height="2190"></rect>
            <g id="_Template-Resources-/-Header-and-Footer">
                <rect id="BG" fill="#666666" fill-rule="evenodd" x="0" y="0" width="3250" height="2190"></rect>
                <text id="Subtitle" opacity="0.5" font-family="SFUIText-Medium, SF UI Text" font-size="16" font-weight="400" line-spacing="26" letter-spacing="0.200000003" fill="#FFFFFF">
                    <tspan x="40" y="87">Values in pixels. Hide “Guide” group before exporting.</tspan>
                </text>
                <text id="OS" font-family="SFUIDisplay-Regular, SF UI Display" font-size="40" font-weight="normal" line-spacing="48" letter-spacing="0.75999999" fill="#FFFFFF">
                    <tspan x="3096.07281" y="60">iOS 10</tspan>
                </text>
                <text id="Title" font-family="SFUIDisplay-Regular, SF UI Display" font-size="40" font-weight="normal" line-spacing="48" letter-spacing="0.75999999" fill="#FFFFFF">
                    <tspan x="40" y="60">App Icons</tspan>
                </text>
            </g>
        </g>
        <g id="App-Icons" transform="translate(-560.000000, -330.000000)">
            <g id="@2x" transform="translate(560.000000, 0.000000)">
                <g id="App-Icon" transform="translate(0.000000, 330.000000)">
                    <rect id="App-Icon-Mask-1536x1536" fill="#FFFFFF" x="0" y="0" width="1024" height="1024"></rect>
                    <g id="backgrounds" stroke-width="1" fill="#273D56">
                        <rect id="grey-dark" fill-rule="nonzero" x="0" y="0.425477879" width="1024" height="1023.21511"></rect>
                    </g>
                    <g id="appicon" stroke-width="1" transform="translate(199.333333, 199.333333)" fill="#FFFFFF">
                        <path d="M93.5875557,186.726045 C42.2396447,186.726045 0.471822667,144.946845 0.471822667,93.5989337 C0.471822667,42.2510227 42.2510227,0.471822667 93.5875557,0.471822667 C144.946845,0.471822667 186.714667,42.2510227 186.714667,93.5989337 C186.714667,144.946845 144.935467,186.726045 93.5875557,186.726045 L93.5875557,186.726045 Z" id="Path" fill-rule="nonzero"></path>
                        <path d="M312.666667,405.793778 C261.307378,405.793778 219.539556,364.014578 219.539556,312.666667 C219.539556,261.318756 261.318756,219.539556 312.666667,219.539556 C364.014578,219.539556 405.7824,261.318756 405.7824,312.666667 C405.7824,364.014578 364.014578,405.793778 312.666667,405.793778 L312.666667,405.793778 Z" id="Path" fill-rule="nonzero"></path>
                        <path d="M531.7344,624.872889 C480.375111,624.872889 438.607289,583.093689 438.607289,531.745778 C438.607289,480.397867 480.386489,438.618667 531.7344,438.618667 C583.093689,438.618667 624.861511,480.397867 624.861511,531.745778 C624.861511,583.093689 583.093689,624.872889 531.7344,624.872889 L531.7344,624.872889 Z" id="Path" fill-rule="nonzero"></path>
                    </g>
                </g>
            </g>
        </g>
    </g>
</svg>